# xmcd
#
# Track frame offsets:
#	150
#	13837
#	22197
#	32202
#	40172
#	48845
#	60225
#	72337
#	83500
#	96635
#
# Disc length: 1456 seconds
#
# Revision: 2
# Processed by: cddbd v1.5.2PL0 Copyright (c) Steve Scherf et al.
# Submitted via: EZCDAudioConverter 6.0.5.1
#
DISCID=7e05ae0a
DTITLE=Willie Nelson - Golden Hits
DYEAR=2011
DGENRE=Country
TTITLE0=Home Is Where You`re Happy
TTITLE1=Slow Down Old World
TTITLE2=Healing Hands Of Time
TTITLE3=Things To Remember
TTITLE4=Why Are You Picking On Me
TTITLE5=December Days
TTITLE6=I Can't Find The Time
TTITLE7=Suffering In Silence
TTITLE8=You'll Always Have Someone
TTITLE9=I Just Don`t Understand
EXTD=
EXTT0=
EXTT1=
EXTT2=
EXTT3=
EXTT4=
EXTT5=
EXTT6=
EXTT7=
EXTT8=
EXTT9=
PLAYORDER=
